<svg width="20" height="20" viewBox="0 0 20 20" fill="none" xmlns="http://www.w3.org/2000/svg"> <path d="M10.0003 1.66663C5.40533 1.66663 1.66699 5.40496 1.66699 9.99996C1.66699 14.595 5.40533 18.3333 10.0003 18.3333C14.5953 18.3333 18.3337 14.595 18.3337 9.99996C18.3337 5.40496 14.5953 1.66663 10.0003 1.66663ZM10.0003 16.6666C6.32449 16.6666 3.33366 13.6758 3.33366 9.99996C3.33366 6.32413 6.32449 3.33329 10.0003 3.33329C13.6762 3.33329 16.667 6.32413 16.667 9.99996C16.667 13.6758 13.6762 16.6666 10.0003 16.6666Z" fill="#6366F1"/> <path d="M8.33273 11.3226L6.4169 9.41006L5.24023 10.5901L8.3344 13.6776L13.9227 8.08922L12.7444 6.91089L8.33273 11.3226Z" fill="#6366F1"/> </svg>
