<svg xmlns="http://www.w3.org/2000/svg" width="28" height="28" fill="none" xmlns:v="https://vecta.io/nano"><g clip-path="url(#A)" fill="#6366f1"><path d="M21.287 18.523c-.915-.903-2.057-.903-2.966 0l-2.068 2.074c-.186.192-.344.233-.571.105l-1.358-.711c-2.01-1.264-3.694-2.89-5.186-4.719-.74-.909-1.398-1.882-1.859-2.977-.093-.221-.076-.367.105-.548l2.051-2.045c.95-.956.95-2.074-.006-3.036L7.805 5.034 6.127 3.356c-.915-.891-2.057-.891-2.966.006L1.081 5.43C.422 6.054.09 6.817.02 7.709c-.111 1.451.245 2.82.746 4.154 1.025 2.762 2.587 5.215 4.481 7.464 2.558 3.041 5.611 5.448 9.183 7.184 1.608.781 3.275 1.381 5.087 1.48 1.247.07 2.331-.245 3.199-1.218.594-.664 1.264-1.27 1.894-1.905.932-.944.938-2.086.012-3.018l-3.333-3.327zm-1.113-4.644l2.15-.367a9.61 9.61 0 0 0-2.686-5.186c-1.497-1.497-3.391-2.441-5.477-2.733l-.303 2.162A7.42 7.42 0 0 1 18.1 9.87c1.095 1.095 1.812 2.482 2.074 4.009zm3.362-9.346A15.85 15.85 0 0 0 14.447 0l-.303 2.162c2.995.42 5.71 1.777 7.854 3.915 2.034 2.033 3.368 4.603 3.851 7.429l2.15-.367a15.97 15.97 0 0 0-4.463-8.606z"/></g><defs><clipPath id="A"><path fill="#fff" d="M0 0h28v28H0z"/></clipPath></defs></svg>