<svg xmlns="http://www.w3.org/2000/svg" width="28" height="28" fill="none" xmlns:v="https://vecta.io/nano"><path d="M14.055 1C21.744 1 28 6.52 28 13.305c0 2.866-1.134 5.644-3.199 7.845a4.99 4.99 0 0 0 1.318 4.7c.515.515.151 1.4-.58 1.4-2.338 0-4.591-.916-6.265-2.531-1.657.591-3.409.89-5.219.89C6.365 25.609 0 20.09 0 13.305S6.365 1 14.055 1zm6.453 14.766c1.357 0 2.461-1.104 2.461-2.461s-1.104-2.461-2.461-2.461-2.461 1.104-2.461 2.461 1.104 2.461 2.461 2.461zm-6.562 0c1.357 0 2.461-1.104 2.461-2.461s-1.104-2.461-2.461-2.461-2.461 1.104-2.461 2.461 1.104 2.461 2.461 2.461zm-6.562 0c1.357 0 2.461-1.104 2.461-2.461s-1.104-2.461-2.461-2.461-2.461 1.104-2.461 2.461 1.104 2.461 2.461 2.461z" fill="#22c55e"/></svg>